<svg width="525" height="312" xmlns="http://www.w3.org/2000/svg" xmlns:xlink="http://www.w3.org/1999/xlink" overflow="hidden"><defs><clipPath id="clip0"><rect x="261" y="161" width="525" height="312"/></clipPath></defs><g clip-path="url(#clip0)" transform="translate(-261 -161)"><path d="M262 344 292.236 344 292.236 346 262 346ZM292.236 341C294.445 341 296.236 342.791 296.236 345 296.236 347.209 294.445 349 292.236 349 290.027 349 288.236 347.209 288.236 345 288.236 342.791 290.027 341 292.236 341Z"/><path d="M292 344 352.472 344 352.472 346 292 346ZM352.472 341C354.682 341 356.472 342.791 356.472 345 356.472 347.209 354.682 349 352.472 349 350.263 349 348.472 347.209 348.472 345 348.472 342.791 350.263 341 352.472 341Z"/><text font-family="SimSun,SimSun_MSFontService,sans-serif" font-weight="400" font-size="19" transform="translate(432.126 397)">起飞<tspan font-family="Times New Roman,Times New Roman_MSFontService,sans-serif" font-size="19" x="-144.592" y="-61">1</tspan><tspan font-family="Times New Roman,Times New Roman_MSFontService,sans-serif" font-size="19" x="-114.355" y="-61">2</tspan></text><path d="M353 344 413.472 344 413.472 346 353 346ZM413.472 341C415.682 341 417.472 342.791 417.472 345 417.472 347.209 415.682 349 413.472 349 411.263 349 409.472 347.209 409.472 345 409.472 342.791 411.263 341 413.472 341Z"/><text font-family="Times New Roman,Times New Roman_MSFontService,sans-serif" font-weight="400" font-size="19" transform="translate(378.243 336)">3</text><path d="M0.894409-0.44725 76.485 150.719 74.6961 151.613-0.894409 0.44725ZM79.1682 149.377C80.1562 151.353 79.3554 153.755 77.3795 154.743 75.4037 155.731 73.0009 154.931 72.0129 152.955 71.0249 150.979 71.8257 148.576 73.8016 147.588 75.7774 146.6 78.1801 147.401 79.1682 149.377Z" transform="matrix(1 0 0 -1 413 345.166)"/><text font-family="SimSun,SimSun_MSFontService,sans-serif" font-weight="400" font-size="19" transform="translate(432.126 427)">滑跑<tspan font-size="19" x="0" y="30">开车和暖机</tspan></text><path d="M1-1.06838e-06 1.0001 91.6011-0.999902 91.6011-1 1.06838e-06ZM2.66676 90.2677 0.000104987 98.2677-2.66657 90.2677Z" transform="matrix(1 0 0 -1 292 450.268)"/><path d="M292 451 428.063 451" stroke="#000000" stroke-width="2" stroke-miterlimit="8" fill="none" fill-rule="evenodd"/><path d="M1-1.54321e-06 1.00009 61.3648-0.999905 61.3648-1 1.54321e-06ZM2.66676 60.0315 0.000104987 68.0315-2.66657 60.0315Z" transform="matrix(1 0 0 -1 353 420.031)"/><path d="M353 420 428.591 420" stroke="#000000" stroke-width="2" stroke-miterlimit="8" fill="none" fill-rule="evenodd"/><path d="M1-2.77778e-06 1.00009 31.1286-0.999914 31.1286-1 2.77778e-06ZM2.66675 29.7953 0.000104987 37.7953-2.66658 29.7953Z" transform="matrix(1 0 0 -1 413 389.795)"/><path d="M413 390 428.118 390" stroke="#000000" stroke-width="2" stroke-miterlimit="8" fill="none" fill-rule="evenodd"/><text font-family="Times New Roman,Times New Roman_MSFontService,sans-serif" font-weight="400" font-size="19" transform="translate(437.746 276)">4</text><path d="M489 193 670.417 193 670.417 195 489 195ZM670.417 190C672.626 190 674.417 191.791 674.417 194 674.417 196.209 672.626 198 670.417 198 668.208 198 666.417 196.209 666.417 194 666.417 191.791 668.208 190 670.417 190Z"/><text font-family="SimSun,SimSun_MSFontService,sans-serif" font-weight="400" font-size="19" transform="translate(544.762 215)">巡航<tspan font-family="Times New Roman,Times New Roman_MSFontService,sans-serif" font-size="19" x="14.8987" y="-30">5</tspan></text><path d="M671 269 671 344.591 669 344.591 669 269ZM674 344.591C674 346.8 672.209 348.591 670 348.591 667.791 348.591 666 346.8 666 344.591 666 342.381 667.791 340.591 670 340.591 672.209 340.591 674 342.381 674 344.591Z"/><path d="M670 344 730.472 344 730.472 346 670 346ZM730.472 341C732.682 341 734.472 342.791 734.472 345 734.472 347.209 732.682 349 730.472 349 728.263 349 726.472 347.209 726.472 345 726.472 342.791 728.263 341 730.472 341Z"/><path d="M731 345 761.236 345" stroke="#000000" stroke-width="2" stroke-miterlimit="8" fill="none" fill-rule="evenodd"/><text font-family="SimSun,SimSun_MSFontService,sans-serif" font-weight="400" font-size="19" transform="translate(454.803 276)">爬升和加速<tspan font-family="Times New Roman,Times New Roman_MSFontService,sans-serif" font-size="19" x="202.155" y="38">7</tspan><tspan font-size="19" x="219.213" y="38">下降</tspan><tspan font-family="Times New Roman,Times New Roman_MSFontService,sans-serif" font-size="19" x="241.89" y="60">8</tspan><tspan font-size="19" x="170.237" y="151">着陆、滑跑和停车</tspan></text><path d="M1-1.98413e-06 1.00009 46.2467-0.999908 46.2467-1 1.98413e-06ZM2.66676 44.9134 0.000104987 52.9134-2.66658 44.9134Z" transform="matrix(1 0 0 -1 700 404.913)"/><path d="M671 194 671 269.591 669 269.591 669 194ZM674 269.591C674 271.8 672.209 273.591 670 273.591 667.791 273.591 666 271.8 666 269.591 666 267.381 667.791 265.591 670 265.591 672.209 265.591 674 267.381 674 269.591Z"/><text font-family="Times New Roman,Times New Roman_MSFontService,sans-serif" font-weight="400" font-size="19" transform="translate(656.982 238)">6<tspan font-family="SimSun,SimSun_MSFontService,sans-serif" font-size="19" x="17.0573" y="0">待机</tspan></text></g></svg>