<svg width="487" height="312" xmlns="http://www.w3.org/2000/svg" xmlns:xlink="http://www.w3.org/1999/xlink" overflow="hidden"><defs><clipPath id="clip0"><rect x="299" y="161" width="487" height="312"/></clipPath></defs><g clip-path="url(#clip0)" transform="translate(-299 -161)"><path d="M300 344 330.236 344 330.236 346 300 346ZM330.236 341C332.445 341 334.236 342.791 334.236 345 334.236 347.209 332.445 349 330.236 349 328.027 349 326.236 347.209 326.236 345 326.236 342.791 328.027 341 330.236 341Z"/><path d="M330 344 390.472 344 390.472 346 330 346ZM390.472 341C392.682 341 394.472 342.791 394.472 345 394.472 347.209 392.682 349 390.472 349 388.263 349 386.472 347.209 386.472 345 386.472 342.791 388.263 341 390.472 341Z"/><text font-family="SimSun,SimSun_MSFontService,sans-serif" font-weight="400" font-size="19" transform="translate(469.921 397)">起飞<tspan font-family="Times New Roman,Times New Roman_MSFontService,sans-serif" font-size="19" x="-144.592" y="-61">1</tspan><tspan font-family="Times New Roman,Times New Roman_MSFontService,sans-serif" font-size="19" x="-114.355" y="-61">2</tspan></text><path d="M391 344 451.472 344 451.472 346 391 346ZM451.472 341C453.682 341 455.472 342.791 455.472 345 455.472 347.209 453.682 349 451.472 349 449.263 349 447.472 347.209 447.472 345 447.472 342.791 449.263 341 451.472 341Z"/><text font-family="Times New Roman,Times New Roman_MSFontService,sans-serif" font-weight="400" font-size="19" transform="translate(416.038 336)">3</text><path d="M1-6.94586e-07 1.0001 151.15-0.999895 151.15-1 6.94586e-07ZM4.0001 151.15C4.00011 153.359 2.20925 155.15 0.000107765 155.15-2.20903 155.15-3.99989 153.359-3.99989 151.15-3.9999 148.941-2.20904 147.15 0.000102209 147.15 2.20924 147.15 4.0001 148.941 4.0001 151.15Z" transform="matrix(1 0 0 -1 451 345.15)"/><text font-family="SimSun,SimSun_MSFontService,sans-serif" font-weight="400" font-size="19" transform="translate(469.921 427)">滑跑<tspan font-size="19" x="0" y="30">开车和暖机</tspan></text><path d="M1-1.06838e-06 1.0001 91.6011-0.999902 91.6011-1 1.06838e-06ZM2.66676 90.2677 0.000104987 98.2677-2.66657 90.2677Z" transform="matrix(1 0 0 -1 330 450.268)"/><path d="M330 451 466.063 451" stroke="#000000" stroke-width="2" stroke-miterlimit="8" fill="none" fill-rule="evenodd"/><path d="M1-1.54321e-06 1.00009 61.3648-0.999905 61.3648-1 1.54321e-06ZM2.66676 60.0315 0.000104987 68.0315-2.66657 60.0315Z" transform="matrix(1 0 0 -1 391 420.031)"/><path d="M391 420 466.591 420" stroke="#000000" stroke-width="2" stroke-miterlimit="8" fill="none" fill-rule="evenodd"/><path d="M1-2.77778e-06 1.00009 31.1286-0.999914 31.1286-1 2.77778e-06ZM2.66675 29.7953 0.000104987 37.7953-2.66658 29.7953Z" transform="matrix(1 0 0 -1 451 389.795)"/><path d="M451 390 466.118 390" stroke="#000000" stroke-width="2" stroke-miterlimit="8" fill="none" fill-rule="evenodd"/><text font-family="Times New Roman,Times New Roman_MSFontService,sans-serif" font-weight="400" font-size="19" transform="translate(437.746 276)">4</text><path d="M451 193 670.224 193 670.224 195 451 195ZM670.224 190C672.433 190 674.224 191.791 674.224 194 674.224 196.209 672.433 198 670.224 198 668.015 198 666.224 196.209 666.224 194 666.224 191.791 668.015 190 670.224 190Z"/><text font-family="SimSun,SimSun_MSFontService,sans-serif" font-weight="400" font-size="19" transform="translate(544.762 215)">巡航<tspan font-family="Times New Roman,Times New Roman_MSFontService,sans-serif" font-size="19" x="14.8987" y="-30">5</tspan></text><path d="M671 194 671 345.166 669 345.166 669 194ZM674 345.166C674 347.375 672.209 349.166 670 349.166 667.791 349.166 666 347.375 666 345.166 666 342.957 667.791 341.166 670 341.166 672.209 341.166 674 342.957 674 345.166Z"/><path d="M670 344 730.472 344 730.472 346 670 346ZM730.472 341C732.682 341 734.472 342.791 734.472 345 734.472 347.209 732.682 349 730.472 349 728.263 349 726.472 347.209 726.472 345 726.472 342.791 728.263 341 730.472 341Z"/><path d="M731 345 761.236 345" stroke="#000000" stroke-width="2" stroke-miterlimit="8" fill="none" fill-rule="evenodd"/><text font-family="SimSun,SimSun_MSFontService,sans-serif" font-weight="400" font-size="19" transform="translate(454.803 276)">爬升<tspan font-family="Times New Roman,Times New Roman_MSFontService,sans-serif" font-size="19" x="202.155" y="0">6</tspan><tspan font-size="19" x="219.213" y="0">下降</tspan><tspan font-family="Times New Roman,Times New Roman_MSFontService,sans-serif" font-size="19" x="241.89" y="60">7</tspan><tspan font-size="19" x="170.237" y="151">着陆、滑跑和停车</tspan></text><path d="M1-1.98413e-06 1.00009 46.2467-0.999908 46.2467-1 1.98413e-06ZM2.66676 44.9134 0.000104987 52.9134-2.66658 44.9134Z" transform="matrix(1 0 0 -1 700 404.913)"/></g></svg>