<svg width="201" height="96" xmlns="http://www.w3.org/2000/svg" xmlns:xlink="http://www.w3.org/1999/xlink" overflow="hidden"><defs><clipPath id="clip0"><rect x="236" y="192" width="201" height="96"/></clipPath></defs><g clip-path="url(#clip0)" transform="translate(-236 -192)"><path d="M262 209 307.354 209" stroke="#000000" stroke-width="2" stroke-miterlimit="8" fill="none" fill-rule="evenodd"/><path d="M258.5 209.5C258.5 208.395 259.395 207.5 260.5 207.5 261.605 207.5 262.5 208.395 262.5 209.5 262.5 210.605 261.605 211.5 260.5 211.5 259.395 211.5 258.5 210.605 258.5 209.5Z" stroke="#000000" stroke-width="1.33333" stroke-miterlimit="8" fill="none" fill-rule="evenodd"/><path d="M307 194 307 224.236" stroke="#000000" stroke-width="2" stroke-linecap="round" stroke-miterlimit="8" fill="none" fill-rule="evenodd"/><path d="M315 194 315 224.236" stroke="#000000" stroke-width="2" stroke-linecap="round" stroke-miterlimit="8" fill="none" fill-rule="evenodd"/><rect x="356.5" y="231.5" width="8" height="31" stroke="#000000" stroke-width="1.33333" stroke-miterlimit="8" fill="none"/><text font-family="Times New Roman,Times New Roman_MSFontService,sans-serif" font-weight="400" font-size="19" transform="translate(303.622 246)">C</text><path d="M360 209 360 231.677" stroke="#000000" stroke-width="2" stroke-miterlimit="8" fill="none" fill-rule="evenodd"/><path d="M315 209 404.989 209" stroke="#000000" stroke-width="2" stroke-miterlimit="8" fill="none" fill-rule="evenodd"/><path d="M405.5 209.5C405.5 208.395 406.395 207.5 407.5 207.5 408.605 207.5 409.5 208.395 409.5 209.5 409.5 210.605 408.605 211.5 407.5 211.5 406.395 211.5 405.5 210.605 405.5 209.5Z" stroke="#000000" stroke-width="1.33333" stroke-miterlimit="8" fill="none" fill-rule="evenodd"/><text font-family="Times New Roman,Times New Roman_MSFontService,sans-serif" font-weight="400" font-size="19" transform="translate(366.517 253)">R<tspan font-style="italic" font-size="19" x="26.9195" y="0">y</tspan><tspan font-size="12" x="35.2528" y="4">a</tspan><tspan font-size="19" x="40.7528" y="0">(</tspan><tspan font-style="italic" font-size="19" x="46.9195" y="0">t</tspan><tspan font-size="19" x="52.0862" y="0">)</tspan><tspan font-style="italic" font-size="19" x="-118.295" y="0">x</tspan><tspan font-size="12" x="-109.961" y="4">a</tspan><tspan font-size="19" x="-104.461" y="0">(</tspan><tspan font-style="italic" font-size="19" x="-98.2947" y="0">t</tspan><tspan font-size="19" x="-93.128" y="0">)</tspan></text><path d="M262 284 405.622 284" stroke="#000000" stroke-width="2" stroke-miterlimit="8" fill="none" fill-rule="evenodd"/><path d="M258.5 285C258.5 284.172 259.395 283.5 260.5 283.5 261.605 283.5 262.5 284.172 262.5 285 262.5 285.828 261.605 286.5 260.5 286.5 259.395 286.5 258.5 285.828 258.5 285Z" stroke="#000000" stroke-width="1.33333" stroke-miterlimit="8" fill="none" fill-rule="evenodd"/><path d="M406.5 285C406.5 284.172 407.172 283.5 408 283.5 408.828 283.5 409.5 284.172 409.5 285 409.5 285.828 408.828 286.5 408 286.5 407.172 286.5 406.5 285.828 406.5 285Z" stroke="#000000" stroke-width="1.33333" stroke-miterlimit="8" fill="none" fill-rule="evenodd"/><path d="M360 262 360 284.677" stroke="#000000" stroke-width="2" stroke-miterlimit="8" fill="none" fill-rule="evenodd"/></g></svg>