<svg width="296" height="140" xmlns="http://www.w3.org/2000/svg" xmlns:xlink="http://www.w3.org/1999/xlink" overflow="hidden"><defs><clipPath id="clip0"><rect x="254" y="343" width="296" height="140"/></clipPath></defs><g clip-path="url(#clip0)" transform="translate(-254 -343)"><path d="M315 360C315 351.716 321.716 345 330 345 338.284 345 345 351.716 345 360 345 368.284 338.284 375 330 375 321.716 375 315 368.284 315 360Z" stroke="#000000" stroke-width="2" stroke-miterlimit="8" fill="none" fill-rule="evenodd"/><text fill="#FFFFFF" font-family="SimSun,SimSun_MSFontService,sans-serif" font-weight="400" font-size="11" transform="translate(327.412 365)">+</text><path d="M323 360 338.118 360" stroke="#000000" stroke-width="2" stroke-miterlimit="8" fill="none" fill-rule="evenodd"/><path d="M330 352 330 367.118" stroke="#000000" stroke-width="2" stroke-miterlimit="8" fill="none" fill-rule="evenodd"/><path d="M262 359 308.247 359 308.247 361 262 361ZM306.913 357.333 314.913 360 306.913 362.667Z"/><rect x="436" y="398" width="60" height="30" stroke="#000000" stroke-width="2" stroke-linejoin="round" stroke-miterlimit="10" fill="none"/><text font-family="SimSun,SimSun_MSFontService,sans-serif" font-weight="400" font-size="19" transform="translate(447.475 420)">延时</text><path d="M345 359 534.869 359 534.869 361 345 361ZM533.535 357.333 541.535 360 533.535 362.667Z"/><path d="M467 360 467 391.129 465 391.129 465 360ZM468.667 389.795 466 397.795 463.333 389.795Z"/><path d="M370.088 460.482 380.778 471.172" stroke="#000000" stroke-width="2" stroke-miterlimit="8" fill="none" fill-rule="evenodd"/><path d="M380.778 460.482 370.088 471.172" stroke="#000000" stroke-width="2" stroke-miterlimit="8" fill="none" fill-rule="evenodd"/><path d="M360 466C360 457.716 366.94 451 375.5 451 384.06 451 391 457.716 391 466 391 474.284 384.06 481 375.5 481 366.94 481 360 474.284 360 466Z" stroke="#000000" stroke-width="2" stroke-miterlimit="8" fill="none" fill-rule="evenodd"/><path d="M1-1.15741e-06 1.0001 84.042-0.999903 84.042-1 1.15741e-06ZM2.66676 82.7087 0.000104987 90.7087-2.66657 82.7087Z" transform="matrix(1 0 0 -1 330 465.709)"/><path d="M330 466 360.236 466" stroke="#000000" stroke-width="2" stroke-miterlimit="8" fill="none" fill-rule="evenodd"/><path d="M1.38889e-06-1 68.9239-0.999904 68.9239 1.0001-1.38889e-06 1ZM67.5906-2.66657 75.5905 0.000104987 67.5905 2.66676Z" transform="matrix(-1 0 0 1 466.591 466)"/><path d="M466 428 466 465.795" stroke="#000000" stroke-width="2" stroke-miterlimit="8" fill="none" fill-rule="evenodd"/><text font-family="Times New Roman,Times New Roman_MSFontService,sans-serif" font-style="italic" font-weight="400" font-size="19" transform="translate(507.586 382)">y<tspan font-style="normal" font-size="19" x="8.33331" y="0">(</tspan><tspan font-size="19" x="14.5" y="0">n</tspan><tspan font-style="normal" font-size="19" x="23.8333" y="0">)</tspan><tspan font-size="19" x="-241.759" y="0">x</tspan><tspan font-style="normal" font-size="19" x="-233.426" y="0">(</tspan><tspan font-size="19" x="-227.259" y="0">n</tspan><tspan font-style="normal" font-size="19" x="-217.926" y="0">)</tspan></text><path d="M376 413 376 444.129 374 444.129 374 413ZM377.667 442.795 375 450.795 372.333 442.795Z"/><text font-family="Times New Roman,Times New Roman_MSFontService,sans-serif" font-style="italic" font-weight="400" font-size="19" transform="translate(362.155 420)">a</text></g></svg>