<svg width="279" height="141" xmlns="http://www.w3.org/2000/svg" xmlns:xlink="http://www.w3.org/1999/xlink" overflow="hidden"><defs><clipPath id="clip0"><rect x="254" y="192" width="279" height="141"/></clipPath></defs><g clip-path="url(#clip0)" transform="translate(-254 -192)"><path d="M345 194 345 224.236" stroke="#000000" stroke-width="2" stroke-linecap="round" stroke-miterlimit="8" fill="none" fill-rule="evenodd"/><path d="M353 194 353 224.236" stroke="#000000" stroke-width="2" stroke-linecap="round" stroke-miterlimit="8" fill="none" fill-rule="evenodd"/><path d="M262 209 345.15 209" stroke="#000000" stroke-width="2" stroke-miterlimit="8" fill="none" fill-rule="evenodd"/><path d="M258.5 209.5C258.5 208.395 259.395 207.5 260.5 207.5 261.605 207.5 262.5 208.395 262.5 209.5 262.5 210.605 261.605 211.5 260.5 211.5 259.395 211.5 258.5 210.605 258.5 209.5Z" stroke="#000000" stroke-width="1.33333" stroke-miterlimit="8" fill="none" fill-rule="evenodd"/><rect x="428" y="251" width="15" height="38" stroke="#000000" stroke-width="2" stroke-miterlimit="8" fill="none"/><text font-family="Times New Roman,Times New Roman_MSFontService,sans-serif" font-weight="400" font-size="19" transform="translate(336.28 246)">C</text><path d="M436 209 436 250.575" stroke="#000000" stroke-width="2" stroke-miterlimit="8" fill="none" fill-rule="evenodd"/><path d="M353 209 526.858 209" stroke="#000000" stroke-width="2" stroke-miterlimit="8" fill="none" fill-rule="evenodd"/><path d="M527.5 209.5C527.5 208.395 528.172 207.5 529 207.5 529.828 207.5 530.5 208.395 530.5 209.5 530.5 210.605 529.828 211.5 529 211.5 528.172 211.5 527.5 210.605 527.5 209.5Z" stroke="#000000" stroke-width="1.33333" stroke-miterlimit="8" fill="none" fill-rule="evenodd"/><text font-family="Times New Roman,Times New Roman_MSFontService,sans-serif" font-weight="400" font-size="19" transform="translate(449.666 275)">R<tspan font-style="italic" font-size="19" x="40.4454" y="1">y</tspan><tspan font-size="12" x="48.7788" y="5">a</tspan><tspan font-size="19" x="54.2788" y="1">(</tspan><tspan font-style="italic" font-size="19" x="60.4454" y="1">t</tspan><tspan font-size="19" x="65.6121" y="1">)</tspan><tspan font-style="italic" font-size="19" x="-183.839" y="1">x</tspan><tspan font-size="12" x="-175.506" y="5">a</tspan><tspan font-size="19" x="-170.006" y="1">(</tspan><tspan font-style="italic" font-size="19" x="-163.839" y="1">t</tspan><tspan font-size="19" x="-158.673" y="1">)</tspan></text><path d="M262 330 526.567 330" stroke="#000000" stroke-width="2" stroke-miterlimit="8" fill="none" fill-rule="evenodd"/><path d="M258.5 330.5C258.5 329.395 259.395 328.5 260.5 328.5 261.605 328.5 262.5 329.395 262.5 330.5 262.5 331.605 261.605 332.5 260.5 332.5 259.395 332.5 258.5 331.605 258.5 330.5Z" stroke="#000000" stroke-width="1.33333" stroke-miterlimit="8" fill="none" fill-rule="evenodd"/><path d="M527.5 330.5C527.5 329.395 528.172 328.5 529 328.5 529.828 328.5 530.5 329.395 530.5 330.5 530.5 331.605 529.828 332.5 529 332.5 528.172 332.5 527.5 331.605 527.5 330.5Z" stroke="#000000" stroke-width="1.33333" stroke-miterlimit="8" fill="none" fill-rule="evenodd"/><path d="M436 288 436 329.575" stroke="#000000" stroke-width="2" stroke-miterlimit="8" fill="none" fill-rule="evenodd"/></g></svg>